<svg xmlns="http://www.w3.org/2000/svg" version="1.1" xmlns:xlink="http://www.w3.org/1999/xlink" xmlns:svgjs="http://svgjs.dev/svgjs" width="1000" height="186" viewBox="0 0 1000 186"><g transform="matrix(1,0,0,1,-0.6060339740096765,0.10307784124816521)"><svg viewBox="0 0 396 74" data-background-color="#ffffff" preserveAspectRatio="xMidYMid meet" height="186" width="1000" xmlns="http://www.w3.org/2000/svg" xmlns:xlink="http://www.w3.org/1999/xlink"><g id="tight-bounds" transform="matrix(1,0,0,1,0.2399894537078353,-0.04100946372238923)"><svg viewBox="0 0 395.52 74.08201892744478" height="74.08201892744478" width="395.52"><g><svg viewBox="0 0 395.52 74.08201892744478" height="74.08201892744478" width="395.52"><g><svg viewBox="0 0 395.52 74.08201892744478" height="74.08201892744478" width="395.52"><g><svg viewBox="0 0 395.52 74.08201892744478" height="74.08201892744478" width="395.52"><g><svg viewBox="0 0 395.52 74.08201892744478" height="74.08201892744478" width="395.52"><g transform="matrix(1,0,0,1,0,0)"><svg width="395.52" viewBox="2.3499999046325684 -35 253.57998657226562 47.5" height="74.08201892744478" data-palette-color="#f9a3f4"><path d="M2.35-25L9.55-25 9.55-21.9Q10.65-23.2 12-24.23 13.35-25.25 14.95-25.25L14.95-25.25Q15.9-25.25 16.68-24.85 17.45-24.45 18.03-23.8 18.6-23.15 18.93-22.38 19.25-21.6 19.25-20.8L19.25-20.8Q19.25-19.7 18.57-18.78 17.9-17.85 16.35-17.85L16.35-17.85Q15.2-17.85 14.75-18.35 14.3-18.85 14.05-19.43 13.8-20 13.53-20.5 13.25-21 12.55-21L12.55-21Q11.8-21 11.08-20.43 10.35-19.85 9.55-19L9.55-19 9.55 0 2.35 0 2.35-25ZM31-25.25L31-25.25Q34.45-25.25 36.5-23.38 38.55-21.5 39.15-17.35L39.15-17.35 39.5-17.35Q40.2-17.35 41.07-17.6 41.95-17.85 42.9-18.25 43.85-18.65 44.75-19.2 45.65-19.75 46.35-20.35L46.35-20.35 47.1-19Q46.55-18.2 45.72-17.55 44.9-16.9 43.85-16.38 42.8-15.85 41.65-15.48 40.5-15.1 39.35-14.9L39.35-14.9Q39.4-14.55 39.4-14.23 39.4-13.9 39.4-13.55L39.4-13.55Q39.4-10.65 38.9-8.13 38.4-5.6 37.22-3.73 36.05-1.85 34.2-0.78 32.35 0.3 29.65 0.3L29.65 0.3Q27.8 0.3 26.12-0.28 24.45-0.85 23.15-2.18 21.85-3.5 21.07-5.68 20.3-7.85 20.3-11L20.3-11Q20.3-13.15 20.75-15.63 21.2-18.1 22.4-20.25 23.6-22.4 25.67-23.83 27.75-25.25 31-25.25ZM31.05-4.4L31.05-4.4Q32.1-4.4 32.87-5.13 33.65-5.85 34.15-7.13 34.65-8.4 34.87-10.15 35.1-11.9 35.1-13.95L35.1-13.95 35.1-14.7Q33.85-14.95 33.5-15.65 33.15-16.35 33.15-17.2L33.15-17.2Q33.15-18.25 33.5-18.8 33.85-19.35 34.4-19.55L34.4-19.55Q33.85-21.25 33.07-21.75 32.3-22.25 31.75-22.25L31.75-22.25Q30.65-22.25 29.87-21.23 29.1-20.2 28.6-18.63 28.1-17.05 27.87-15.15 27.65-13.25 27.65-11.5L27.65-11.5Q27.65-9.25 27.97-7.85 28.3-6.45 28.8-5.7 29.3-4.95 29.9-4.67 30.5-4.4 31.05-4.4ZM55.5-25L62.7-25 62.7-8Q62.7-6.1 63.2-5.33 63.7-4.55 65-4.55L65-4.55Q66.9-4.55 67.77-5.85 68.65-7.15 68.84-8.95L68.84-8.95 70.95-8.95Q70.55-5.9 69.55-4.08 68.55-2.25 67.3-1.28 66.05-0.3 64.75 0 63.45 0.3 62.4 0.3L62.4 0.3Q59.7 0.3 58.32-0.95 56.95-2.2 56.45-4.45L56.45-4.45Q55.85-2.85 55-1.93 54.15-1 53.25-0.5 52.35 0 51.45 0.15 50.55 0.3 49.8 0.3L49.8 0.3Q46.25 0.3 44.67-1.8 43.1-3.9 43.1-7.45L43.1-7.45 43.1-25 50.3-25 50.3-8Q50.3-6.1 50.82-5.33 51.35-4.55 52.35-4.55L52.35-4.55Q53.7-4.55 54.6-5.8 55.5-7.05 55.5-8.95L55.5-8.95 55.5-25ZM81.09-15.1L81.09-15.1Q81.09-18.1 80.42-19.38 79.74-20.65 78.49-20.65L78.49-20.65Q77.74-20.65 77.22-20.25 76.69-19.85 76.34-19.2 75.99-18.55 75.79-17.73 75.59-16.9 75.54-16.05L75.54-16.05 75.54 0 68.34 0 68.34-25 75.54-25 75.54-22.4Q76.69-24.15 78.14-24.68 79.59-25.2 80.89-25.2L80.89-25.2Q82.29-25.2 83.57-24.75 84.84-24.3 85.82-23.23 86.79-22.15 87.34-20.38 87.89-18.6 87.89-16L87.89-16Q87.89-15.35 87.87-14.38 87.84-13.4 87.79-12.4 87.74-11.4 87.72-10.45 87.69-9.5 87.69-8.85L87.69-8.85Q87.69-6.7 88.14-5.63 88.59-4.55 90.14-4.55L90.14-4.55Q91.84-4.55 92.52-5.8 93.19-7.05 93.59-8.95L93.59-8.95 95.69-8.95Q95.29-5.95 94.49-4.13 93.69-2.3 92.69-1.33 91.69-0.35 90.54-0.03 89.39 0.3 88.29 0.3L88.29 0.3Q84.44 0.3 82.72-2.25 80.99-4.8 80.99-9.05L80.99-9.05Q80.99-9.5 81.02-10.33 81.04-11.15 81.04-12.05 81.04-12.95 81.07-13.78 81.09-14.6 81.09-15.1ZM106.99-25L114.19-25 114.19-8Q114.19-5.9 114.77-5.23 115.34-4.55 116.79-4.55L116.79-4.55Q118.24-4.55 119.22-5.8 120.19-7.05 120.34-8.95L120.34-8.95 122.44-8.95Q122.04-5.9 121.04-4.08 120.04-2.25 118.79-1.28 117.54-0.3 116.24 0 114.94 0.3 113.94 0.3L113.94 0.3Q111.29 0.3 109.92-0.93 108.54-2.15 107.99-4.3L107.99-4.3Q107.59-3.45 107.04-2.63 106.49-1.8 105.72-1.15 104.94-0.5 103.92-0.1 102.89 0.3 101.54 0.3L101.54 0.3Q99.94 0.3 98.39-0.3 96.84-0.9 95.57-2.25 94.29-3.6 93.52-5.83 92.74-8.05 92.74-11.3L92.74-11.3Q92.74-13.6 93.27-16.05 93.79-18.5 94.92-20.55 96.04-22.6 97.87-23.93 99.69-25.25 102.29-25.25L102.29-25.25Q102.89-25.25 103.59-25.18 104.29-25.1 104.94-24.83 105.59-24.55 106.14-24.03 106.69-23.5 106.99-22.6L106.99-22.6 106.99-25ZM106.99-8.95L106.99-20.2Q106.94-20.4 106.79-20.73 106.64-21.05 106.34-21.38 106.04-21.7 105.59-21.93 105.14-22.15 104.54-22.15L104.54-22.15Q103.34-22.15 102.47-21.13 101.59-20.1 101.07-18.57 100.54-17.05 100.29-15.23 100.04-13.4 100.04-11.75L100.04-11.75Q100.04-9.1 100.44-7.63 100.84-6.15 101.42-5.48 101.99-4.8 102.64-4.67 103.29-4.55 103.74-4.55L103.74-4.55Q104.29-4.55 104.87-4.83 105.44-5.1 105.92-5.65 106.39-6.2 106.69-7.03 106.99-7.85 106.99-8.95L106.99-8.95ZM135.14-25L140.09-25 131.59-18.1Q131.94-18.15 132.26-18.15 132.59-18.15 132.94-18.15L132.94-18.15Q134.34-18.15 135.64-17.82 136.94-17.5 137.91-16.73 138.89-15.95 139.49-14.7 140.09-13.45 140.09-11.6L140.09-11.6Q140.09-11.15 140.06-10.48 140.04-9.8 139.99-9.13 139.94-8.45 139.91-7.85 139.89-7.25 139.89-6.9L139.89-6.9Q139.89-5.85 140.39-5.2 140.89-4.55 142.34-4.55L142.34-4.55Q143.24-4.55 143.79-4.83 144.34-5.1 144.71-5.63 145.09-6.15 145.31-6.98 145.54-7.8 145.79-8.95L145.79-8.95 147.89-8.95Q147.49-6 146.71-4.17 145.94-2.35 144.94-1.35 143.94-0.35 142.74-0.03 141.54 0.3 140.34 0.3L140.34 0.3Q138.44 0.3 137.09-0.25 135.74-0.8 134.86-1.75 133.99-2.7 133.56-3.95 133.14-5.2 133.14-6.6L133.14-6.6Q133.14-7.2 133.19-8.3 133.24-9.4 133.24-10.3L133.24-10.3Q133.24-12.05 132.76-13.1 132.29-14.15 130.69-14.15L130.69-14.15Q129.14-14.15 128.31-13.28 127.49-12.4 127.09-11.15L127.09-11.15 127.09 0 119.89 0 119.89-34 127.09-35 127.09-17.4 135.14-25ZM159.13-25L166.34-25 166.34-1.8Q167.38-2.2 168.19-2.75 168.99-3.3 169.59-4.13 170.19-4.95 170.56-6.13 170.94-7.3 171.13-8.95L171.13-8.95 173.24-8.95Q172.99-6.45 172.31-4.83 171.63-3.2 170.66-2.15 169.69-1.1 168.56-0.5 167.44 0.1 166.34 0.45L166.34 0.45 166.34 4Q166.34 6.7 165.69 8.35 165.03 10 164.01 10.93 162.99 11.85 161.76 12.18 160.53 12.5 159.38 12.5L159.38 12.5Q157.94 12.5 156.66 12.1 155.38 11.7 154.46 10.98 153.53 10.25 152.99 9.2 152.44 8.15 152.44 6.85L152.44 6.85Q152.44 5.5 153.01 4.42 153.59 3.35 154.53 2.55 155.49 1.75 156.69 1.18 157.88 0.6 159.13 0.2L159.13 0.2 159.13-4Q158.28-2.6 156.96-1.65 155.63-0.7 153.49-0.7L153.49-0.7Q151.94-0.7 150.38-1.3 148.84-1.9 147.59-3.2 146.34-4.5 145.56-6.63 144.78-8.75 144.78-11.75L144.78-11.75Q144.78-14 145.28-16.38 145.78-18.75 146.96-20.73 148.13-22.7 150.06-23.98 151.99-25.25 154.78-25.25L154.78-25.25Q155.28-25.25 155.91-25.18 156.53-25.1 157.13-24.85 157.74-24.6 158.28-24.1 158.84-23.6 159.13-22.75L159.13-22.75 159.13-25ZM156.74-22.15L156.74-22.15Q155.49-22.15 154.61-21.2 153.74-20.25 153.16-18.78 152.59-17.3 152.34-15.5 152.09-13.7 152.09-12L152.09-12Q152.09-9.65 152.49-8.35 152.88-7.05 153.44-6.43 153.99-5.8 154.53-5.68 155.09-5.55 155.38-5.55L155.38-5.55Q156.99-5.55 157.96-6.6 158.94-7.65 159.13-9.25L159.13-9.25 159.13-20.4Q158.99-20.9 158.41-21.53 157.84-22.15 156.74-22.15ZM155.09 6.45L155.09 6.45Q155.09 7.4 155.74 8 156.38 8.6 157.09 8.6L157.09 8.6Q157.99 8.6 158.56 7.5 159.13 6.4 159.13 4.15L159.13 4.15 159.13 2.7Q157.38 3.4 156.24 4.33 155.09 5.25 155.09 6.45ZM171.13-25L178.33-25 178.33-21.9Q179.43-23.2 180.78-24.23 182.13-25.25 183.73-25.25L183.73-25.25Q184.68-25.25 185.46-24.85 186.23-24.45 186.81-23.8 187.38-23.15 187.71-22.38 188.03-21.6 188.03-20.8L188.03-20.8Q188.03-19.7 187.36-18.78 186.68-17.85 185.13-17.85L185.13-17.85Q183.98-17.85 183.53-18.35 183.08-18.85 182.83-19.43 182.58-20 182.31-20.5 182.03-21 181.33-21L181.33-21Q180.58-21 179.86-20.43 179.13-19.85 178.33-19L178.33-19 178.33 0 171.13 0 171.13-25ZM203.33-25L210.53-25 210.53-8Q210.53-5.9 211.11-5.23 211.68-4.55 213.13-4.55L213.13-4.55Q214.58-4.55 215.56-5.8 216.53-7.05 216.68-8.95L216.68-8.95 218.78-8.95Q218.38-5.9 217.38-4.08 216.38-2.25 215.13-1.28 213.88-0.3 212.58 0 211.28 0.3 210.28 0.3L210.28 0.3Q207.63 0.3 206.26-0.93 204.88-2.15 204.33-4.3L204.33-4.3Q203.93-3.45 203.38-2.63 202.83-1.8 202.06-1.15 201.28-0.5 200.26-0.1 199.23 0.3 197.88 0.3L197.88 0.3Q196.28 0.3 194.73-0.3 193.18-0.9 191.91-2.25 190.63-3.6 189.86-5.83 189.08-8.05 189.08-11.3L189.08-11.3Q189.08-13.6 189.61-16.05 190.13-18.5 191.26-20.55 192.38-22.6 194.21-23.93 196.03-25.25 198.63-25.25L198.63-25.25Q199.23-25.25 199.93-25.18 200.63-25.1 201.28-24.83 201.93-24.55 202.48-24.03 203.03-23.5 203.33-22.6L203.33-22.6 203.33-25ZM203.33-8.95L203.33-20.2Q203.28-20.4 203.13-20.73 202.98-21.05 202.68-21.38 202.38-21.7 201.93-21.93 201.48-22.15 200.88-22.15L200.88-22.15Q199.68-22.15 198.81-21.13 197.93-20.1 197.41-18.57 196.88-17.05 196.63-15.23 196.38-13.4 196.38-11.75L196.38-11.75Q196.38-9.1 196.78-7.63 197.18-6.15 197.76-5.48 198.33-4.8 198.98-4.67 199.63-4.55 200.08-4.55L200.08-4.55Q200.63-4.55 201.21-4.83 201.78-5.1 202.26-5.65 202.73-6.2 203.03-7.03 203.33-7.85 203.33-8.95L203.33-8.95ZM241.33-15.1L241.33-15.1Q241.33-18.1 240.63-19.38 239.93-20.65 238.73-20.65L238.73-20.65Q237.28-20.65 236.6-19.28 235.93-17.9 235.78-16.05L235.78-16.05 235.78 0 228.58 0 228.58-17.25Q228.58-17.85 228.48-18.48 228.38-19.1 228.13-19.58 227.88-20.05 227.45-20.38 227.03-20.7 226.38-20.7L226.38-20.7Q225.03-20.7 224.3-19.33 223.58-17.95 223.43-16.05L223.43-16.05 223.43 0 216.23 0 216.23-25 223.43-25 223.43-22.4Q224.63-24.2 226.1-24.73 227.58-25.25 228.88-25.25L228.88-25.25Q230.73-25.25 232.33-24.35 233.93-23.45 234.93-20.95L234.93-20.95Q235.53-22.3 236.3-23.15 237.08-24 237.9-24.45 238.73-24.9 239.55-25.05 240.38-25.2 241.13-25.2L241.13-25.2Q242.53-25.2 243.8-24.75 245.08-24.3 246.05-23.23 247.03-22.15 247.58-20.38 248.13-18.6 248.13-16L248.13-16Q248.13-15.35 248.1-14.38 248.08-13.4 248.03-12.4 247.98-11.4 247.95-10.45 247.93-9.5 247.93-8.85L247.93-8.85Q247.93-6.7 248.45-5.63 248.98-4.55 250.53-4.55L250.53-4.55Q251.38-4.55 251.93-4.88 252.48-5.2 252.83-5.8 253.18-6.4 253.4-7.2 253.63-8 253.83-8.95L253.83-8.95 255.93-8.95Q255.53-6 254.73-4.17 253.93-2.35 252.93-1.35 251.93-0.35 250.75-0.03 249.58 0.3 248.43 0.3L248.43 0.3Q244.68 0.3 242.95-2.25 241.23-4.8 241.23-9.05L241.23-9.05Q241.23-9.5 241.25-10.33 241.28-11.15 241.28-12.05 241.28-12.95 241.3-13.8 241.33-14.65 241.33-15.1Z" opacity="1" transform="matrix(1,0,0,1,0,0)" fill="#363635" class="undefined-text-0" data-fill-palette-color="primary" id="text-0"></path></svg></g></svg></g></svg></g></svg></g><g></g></svg></g><defs></defs></svg><rect width="395.52" height="74.08201892744478" fill="none" stroke="none" visibility="hidden"></rect></g></svg></g></svg>